<?xml version="1.0" standalone="no"?>
<!DOCTYPE svg PUBLIC "-//W3C//DTD SVG 20010904//EN"
 "http://www.w3.org/TR/2001/REC-SVG-20010904/DTD/svg10.dtd">
<svg version="1.0" xmlns="http://www.w3.org/2000/svg"
 width="280.000000pt" height="344.000000pt" viewBox="0 0 280.000000 344.000000"
 preserveAspectRatio="xMidYMid meet">

<g transform="translate(0.000000,344.000000) scale(0.100000,-0.100000)"
fill="#000000" stroke="none">
<path d="M129 3359 c-23 -46 -60 -138 -82 -204 -41 -119 -41 -121 -41 -275 -1
-138 2 -163 22 -223 67 -192 180 -318 506 -561 76 -56 85 -66 62 -66 -17 0
-42 14 -72 42 -45 41 -46 42 -61 23 -71 -93 -77 -207 -19 -360 21 -55 51 -125
67 -155 35 -66 37 -84 7 -50 -86 94 -159 182 -189 224 -32 46 -34 52 -34 135
0 47 4 103 8 124 10 49 -1 43 -51 -26 -76 -105 -122 -207 -122 -272 0 -60 48
-129 159 -227 72 -64 116 -113 143 -158 39 -65 39 -65 33 -25 -11 66 -37 158
-56 199 -22 46 -18 57 12 30 33 -30 55 -82 74 -174 47 -237 99 -335 200 -381
47 -22 117 -24 235 -6 52 8 98 10 118 5 37 -10 43 -25 10 -26 -13 0 -36 -5
-52 -11 -27 -11 -28 -14 -22 -58 3 -25 6 -77 6 -114 0 -55 4 -73 19 -88 11
-11 25 -29 31 -41 16 -30 32 -13 33 35 1 21 3 33 5 26 2 -6 11 -11 20 -11 12
0 13 -3 4 -12 -14 -14 -15 -73 -2 -103 7 -18 9 -17 23 14 l15 34 7 -41 c8 -49
21 -61 31 -30 6 20 8 19 18 -12 12 -39 28 -43 37 -8 5 22 6 21 17 -9 15 -43
29 -42 49 5 l16 37 11 -32 c16 -47 30 -58 50 -38 9 9 16 26 17 38 1 21 1 21
12 -3 20 -42 27 -49 42 -44 23 9 38 78 26 119 -6 23 -6 33 0 29 6 -3 16 0 24
6 10 8 15 9 15 2 0 -6 -4 -14 -10 -17 -22 -14 -3 -135 21 -135 5 0 15 12 23
28 12 23 15 25 21 9 10 -25 24 -21 36 10 8 22 12 24 20 13 16 -26 30 9 26 63
-2 26 0 50 4 53 5 3 9 -8 9 -25 0 -16 5 -42 11 -58 l11 -28 13 25 c17 30 19
64 5 90 -7 13 -6 19 5 24 11 4 15 -2 15 -22 0 -33 19 -64 27 -44 3 7 17 27 31
44 25 30 27 39 30 148 l4 116 -38 12 c-27 8 -43 8 -58 0 -20 -11 -21 -10 -3 9
25 29 55 32 150 17 120 -20 189 -18 242 7 100 47 149 148 205 430 8 40 21 69
47 98 19 23 37 40 39 38 2 -2 -3 -21 -12 -43 -22 -52 -54 -173 -53 -204 0 -24
0 -24 17 6 31 57 85 118 177 201 113 101 140 149 132 234 -4 43 -16 79 -45
133 -46 84 -112 177 -122 171 -4 -3 -1 -36 7 -75 18 -85 6 -158 -35 -219 -30
-44 -203 -243 -208 -239 -1 2 17 44 40 93 110 231 123 351 49 468 l-24 38 -39
-35 c-47 -42 -73 -50 -145 -44 -44 4 -64 12 -109 46 -129 98 -232 328 -181
405 14 23 25 27 62 27 55 0 49 12 -25 49 -119 59 -279 82 -412 59 -62 -11 -87
-11 -150 0 -154 28 -401 -22 -459 -92 -12 -14 -9 -16 28 -16 33 0 44 -5 57
-26 24 -36 20 -98 -11 -177 -61 -151 -191 -278 -283 -276 -22 0 -18 4 27 25
143 65 248 219 254 372 l2 57 -85 6 c-210 15 -386 94 -522 235 -149 156 -209
388 -163 630 8 43 13 80 10 82 -2 2 -23 -33 -46 -79z m631 -1527 c25 -13 122
-103 215 -198 168 -170 213 -204 270 -204 28 0 69 46 85 95 7 20 14 34 17 32
9 -10 -20 -92 -43 -123 -48 -62 -209 -107 -384 -108 -107 -1 -119 1 -173 28
-109 53 -152 152 -122 283 9 39 29 95 45 126 16 30 26 57 24 60 -11 10 -76
-12 -109 -38 -45 -34 -45 -20 0 33 50 58 91 62 175 14z m1433 0 c16 -15 33
-36 39 -46 9 -17 7 -16 -21 4 -30 21 -111 40 -111 26 0 -4 11 -28 24 -54 41
-81 59 -159 52 -224 -10 -95 -48 -147 -141 -190 -75 -34 -242 -32 -379 6 -137
37 -191 80 -202 162 l-5 39 24 -50 c60 -126 130 -100 352 135 212 224 291 265
368 192z m406 -77 c1 -74 -23 -131 -79 -185 -56 -55 -71 -51 -21 6 53 60 76
129 75 224 -1 70 0 73 12 45 7 -16 13 -57 13 -90z m-2356 -99 c10 -22 33 -59
53 -83 45 -55 31 -56 -23 0 -74 75 -101 174 -70 258 12 33 12 31 18 -51 3 -47
13 -103 22 -124z m1045 84 c11 -22 19 -40 17 -40 -5 0 -76 96 -90 120 -4 8 5
3 22 -13 16 -15 39 -45 51 -67z m250 20 c-45 -65 -65 -75 -27 -13 26 42 51 71
61 72 4 1 -12 -26 -34 -59z m-218 -445 c0 -15 -60 -89 -67 -82 -4 5 55 97 63
97 2 0 4 -7 4 -15z m199 -40 c32 -48 28 -60 -6 -22 -20 22 -43 60 -43 72 0 13
20 -7 49 -50z m-70 -60 c23 -27 45 -54 49 -60 17 -22 42 -97 42 -127 0 -33
-36 -118 -50 -118 -4 0 -10 13 -13 29 -4 19 -20 39 -43 55 -36 24 -38 25 -67
8 -16 -9 -38 -35 -48 -56 l-17 -39 -21 34 c-43 70 -37 132 23 219 38 56 87
111 96 108 4 -2 26 -25 49 -53z m-513 17 c72 3 73 3 55 -16 -30 -29 -98 -32
-159 -6 -75 33 -89 54 -22 34 33 -10 80 -14 126 -12z m1074 5 c-71 -48 -150
-60 -195 -31 -14 9 -25 19 -25 23 0 3 35 5 78 3 51 -2 90 2 117 12 58 21 64
19 25 -7z m-453 -411 c4 -6 0 -3 -9 7 -10 11 -18 29 -17 41 1 17 2 16 9 -7 5
-16 12 -34 17 -41z m-307 7 c-11 -17 -11 -17 -6 0 3 10 7 26 7 35 1 15 2 15 6
0 2 -10 -1 -25 -7 -35z m510 -98 c19 -22 8 -25 -12 -3 -10 10 -14 18 -9 18 5
0 14 -7 21 -15z m-607 -91 c-6 -17 -23 -9 -23 11 0 8 6 12 14 9 8 -3 12 -12 9
-20z m53 3 c8 3 20 0 28 -6 7 -6 15 -8 19 -5 3 3 3 -4 0 -15 -7 -29 -23 -37
-23 -12 0 24 -16 36 -26 20 -7 -12 -24 7 -23 26 0 6 3 5 5 -2 3 -7 12 -9 20
-6z m206 -26 c-9 -14 -17 -27 -18 -29 -1 -2 -6 10 -11 25 -10 26 -8 28 18 29
27 1 27 1 11 -25z m197 -1 l0 -25 -11 23 c-15 29 -26 28 -34 -5 -6 -24 -8 -25
-14 -8 -9 25 9 44 38 42 17 -1 22 -7 21 -27z m-286 -11 c-4 -16 -8 -17 -14 -7
-13 19 -11 28 5 28 9 0 12 -7 9 -21z"/>
<path d="M2620 3425 c0 -5 5 -37 10 -70 17 -99 13 -261 -9 -348 -30 -116 -79
-201 -166 -291 -125 -129 -309 -210 -504 -223 l-94 -6 6 -72 c6 -81 44 -174
96 -240 73 -90 197 -154 240 -124 234 166 439 357 508 474 64 110 86 197 86
340 0 90 -6 142 -23 210 -31 124 -148 398 -150 350z"/>
<path d="M917 816 c4 -57 3 -77 -6 -72 -6 4 -11 17 -11 29 0 25 -26 67 -41 67
-39 0 66 -351 162 -540 27 -55 99 -158 127 -183 l20 -19 -20 56 c-16 44 -19
61 -10 79 10 20 11 18 11 -16 2 -104 130 -217 243 -217 118 1 229 93 259 215
l7 30 1 -30 c0 -16 -6 -47 -14 -68 l-13 -39 25 24 c94 87 219 367 277 621 20
84 20 87 1 87 -19 0 -45 -51 -46 -92 l-1 -33 -10 28 c-6 18 -7 47 0 82 10 62
1 72 -19 23 -10 -24 -13 -69 -11 -157 1 -68 -1 -133 -4 -145 -7 -20 -7 -20
-16 4 -9 25 -10 25 -28 -15 l-19 -40 -1 32 c0 18 -5 44 -12 59 -12 27 -12 26
-23 -22 -13 -59 -1 -102 23 -82 10 9 8 -1 -6 -29 -28 -53 -44 -64 -31 -21 12
45 12 45 -13 12 -29 -37 -38 -44 -65 -44 -13 0 -23 -4 -23 -10 0 -12 -47 -25
-74 -21 -10 1 -22 -1 -25 -7 -3 -5 -20 -12 -38 -15 -31 -6 -32 -5 -27 22 4 17
-1 41 -11 60 -24 47 -45 26 -45 -44 0 -43 4 -54 18 -58 9 -3 -4 -5 -30 -6 -26
0 -50 3 -53 9 -4 6 1 7 10 3 21 -7 35 12 35 49 0 30 -19 78 -31 78 -15 0 -29
-38 -29 -79 0 -33 -4 -41 -18 -41 -10 0 -27 7 -38 15 -10 8 -35 15 -55 15 -20
0 -42 7 -49 15 -7 8 -21 15 -32 15 -10 0 -30 12 -45 26 -23 24 -24 26 -8 38
13 10 16 20 11 41 -11 43 -27 16 -29 -49 -1 -31 -2 -56 -4 -56 -1 0 -14 20
-28 43 -27 47 -34 73 -11 42 13 -18 14 -18 25 4 11 20 9 51 -6 105 -5 18 -6
18 -19 -5 -7 -13 -14 -37 -14 -54 l-1 -30 -19 35 -19 35 -1 -30 c0 -23 -2 -27
-12 -16 -10 9 -12 50 -11 149 3 119 0 142 -17 177 l-20 40 7 -79z"/>
<path d="M1696 505 c-8 -33 9 -59 24 -35 13 20 12 23 -4 45 -12 17 -13 16 -20
-10z"/>
<path d="M1657 503 c-4 -3 -7 -21 -7 -40 0 -23 5 -33 15 -33 10 0 15 10 15 28
0 31 -13 56 -23 45z"/>
<path d="M1114 474 c-8 -30 10 -54 27 -37 11 11 2 63 -12 63 -5 0 -12 -12 -15
-26z"/>
<path d="M1165 467 c-8 -31 -4 -57 10 -60 14 -3 19 63 6 76 -7 7 -12 2 -16
-16z"/>
<path d="M1557 484 c-9 -9 -9 -88 0 -97 11 -11 33 14 33 37 -1 27 -24 69 -33
60z"/>
<path d="M1607 483 c-4 -3 -7 -22 -7 -40 0 -28 4 -34 18 -31 12 3 16 12 14 33
-4 33 -14 49 -25 38z"/>
<path d="M1214 456 c-8 -33 -2 -69 13 -73 16 -5 27 39 19 72 -8 32 -24 32 -32
1z"/>
<path d="M1270 444 c-15 -37 -3 -86 18 -82 13 3 17 15 17 52 0 56 -19 73 -35
30z"/>
<path d="M1486 454 c-9 -23 -7 -67 3 -83 8 -12 12 -12 25 -2 26 22 19 101 -9
101 -7 0 -16 -7 -19 -16z"/>
</g>
</svg>
