<svg version="1.0" xmlns="http://www.w3.org/2000/svg" width="280.000000pt" height="344.000000pt" viewBox="0 0 280.000000 344.000000" preserveAspectRatio="xMidYMid meet">

<g transform="translate(0.000000,344.000000) scale(0.100000,-0.100000)"
fill="#000000" stroke="none">
<path d="M662 2683 c-47 -112 -55 -148 -56 -248 -1 -91 2 -106 28 -160 34 -71
112 -155 215 -233 42 -31 77 -60 79 -64 11 -26 104 22 140 71 28 39 52 104 52
142 0 28 -2 29 -48 29 -49 0 -131 23 -189 54 -62 31 -139 113 -169 178 -26 57
-29 73 -29 171 0 59 -1 107 -1 107 -1 0 -11 -21 -22 -47z"/>
<path d="M2083 2621 c-1 -90 -4 -107 -30 -163 -32 -69 -96 -142 -154 -177 -55
-32 -148 -60 -201 -61 -47 0 -48 0 -48 -32 0 -84 54 -169 128 -202 l40 -18 78
58 c105 77 197 172 230 235 51 103 51 230 -3 374 -14 39 -29 74 -33 78 -4 4
-7 -37 -7 -92z"/>
<path d="M1209 2290 c-25 -4 -65 -18 -90 -31 -43 -23 -43 -24 -16 -27 74 -9
41 -139 -57 -230 -37 -34 -53 -42 -84 -42 -25 0 -49 8 -66 21 -31 25 -41 20
-57 -28 -17 -52 -5 -121 35 -208 19 -41 31 -75 27 -75 -12 0 -124 137 -134
163 -5 12 -6 47 -3 77 l5 55 -29 -35 c-44 -52 -74 -137 -60 -170 8 -19 181
-208 180 -197 -1 11 -31 101 -40 116 -16 32 5 26 29 -7 11 -16 28 -64 36 -108
19 -88 35 -126 73 -166 32 -35 70 -42 154 -29 68 11 93 8 101 -12 3 -8 -7 -12
-27 -12 l-31 0 4 -64 c3 -61 16 -101 33 -101 5 0 8 9 8 21 0 11 4 18 8 15 5
-3 7 -18 4 -34 -2 -16 1 -33 7 -36 7 -5 11 4 11 24 0 20 4 29 11 25 6 -4 8
-13 5 -21 -7 -18 4 -45 15 -38 5 3 9 -2 9 -10 0 -9 5 -16 10 -16 6 0 10 5 10
12 0 6 6 3 14 -8 14 -18 15 -18 20 6 3 14 7 34 8 44 2 11 9 21 16 24 11 3 11
0 1 -15 -14 -24 -4 -76 14 -70 7 2 12 20 11 40 -1 20 4 38 11 41 9 3 11 -7 7
-40 -4 -36 -2 -44 12 -44 16 0 21 15 17 56 -1 12 5 24 13 27 12 5 14 0 9 -23
-3 -16 -2 -37 2 -47 6 -17 7 -17 21 1 10 14 14 16 14 5 1 -10 3 -9 11 4 6 9
15 14 21 11 7 -5 9 6 6 30 -5 45 7 48 16 4 6 -29 8 -31 17 -15 6 10 8 25 5 33
-7 18 10 54 24 54 6 0 10 -5 10 -11 0 -5 -4 -7 -10 -4 -6 4 -10 -7 -10 -27 l0
-33 20 30 c15 22 20 47 20 94 l0 63 -30 -4 c-34 -5 -40 6 -11 22 14 7 42 6 94
-2 83 -13 119 -4 155 35 24 27 58 117 67 179 7 48 38 108 54 108 6 0 1 -25
-10 -57 -24 -70 -24 -86 -1 -51 10 15 44 51 76 79 71 65 90 98 81 149 -6 34
-69 150 -82 150 -3 0 -2 -15 1 -34 12 -65 -10 -117 -84 -197 l-69 -74 35 74
c47 100 61 160 46 208 -20 64 -26 69 -57 44 -75 -58 -177 1 -235 136 -27 64
-24 94 14 112 l29 14 -38 18 c-57 28 -145 41 -209 31 -30 -5 -77 -5 -103 -1
-56 9 -63 9 -124 -1z m-149 -460 c22 -17 61 -57 87 -87 58 -68 118 -113 150
-113 18 0 28 9 40 38 9 20 18 32 20 25 7 -21 -20 -66 -54 -89 -40 -27 -168
-48 -235 -39 -64 9 -114 50 -122 103 -6 33 8 105 29 155 9 22 -27 24 -45 2 -7
-9 -15 -13 -18 -10 -3 3 5 17 19 31 31 33 74 28 129 -16z m772 23 c30 -35 33
-48 7 -30 -13 9 -31 17 -41 17 -15 0 -15 -4 4 -46 27 -63 22 -153 -11 -188
-39 -41 -114 -53 -221 -34 -95 17 -146 45 -157 86 -8 34 3 38 19 5 9 -19 22
-29 41 -31 25 -3 44 12 140 106 62 60 121 114 132 120 30 17 70 14 87 -5z
m228 -43 c0 -44 -27 -99 -60 -119 -25 -15 -25 -15 -8 5 28 32 50 96 50 139 -1
28 2 35 8 25 6 -8 10 -31 10 -50z m-1330 11 c0 -48 14 -89 42 -118 23 -24 14
-31 -13 -10 -21 16 -59 91 -59 116 0 11 3 26 6 35 11 29 24 17 24 -23z m593
-23 c18 -32 18 -32 -17 7 -19 22 -35 44 -36 49 0 15 34 -21 53 -56z m158 35
c-16 -28 -51 -69 -51 -60 0 12 44 77 53 77 4 0 3 -8 -2 -17z m-157 -304 c-24
-27 -29 -16 -8 16 10 16 20 23 22 16 2 -7 -4 -21 -14 -32z m138 -3 c11 -20 10
-20 -8 -6 -23 18 -34 32 -34 44 0 13 29 -14 42 -38z m-328 -11 c34 5 38 4 26
-10 -18 -21 -77 -19 -116 6 -45 28 -43 31 9 13 26 -10 57 -13 81 -9z m326 -85
c10 -31 10 -42 -5 -70 l-17 -34 -14 26 c-7 14 -21 29 -30 32 -19 7 -54 -19
-54 -41 0 -22 -16 -15 -28 12 -22 49 -7 101 46 157 l25 28 33 -36 c17 -20 37
-53 44 -74z m262 80 c-38 -23 -94 -26 -111 -6 -10 12 -6 13 26 9 21 -2 49 0
63 6 43 17 56 12 22 -9z m-420 -222 c-8 -8 -9 -4 -5 13 4 13 8 18 11 10 2 -7
-1 -18 -6 -23z m186 -23 c4 -6 -1 -2 -10 8 -10 11 -18 27 -17 36 0 10 4 7 10
-8 5 -14 13 -30 17 -36z m-288 -29 c0 -2 -7 -7 -16 -10 -8 -3 -12 -2 -9 4 6
10 25 14 25 6z m106 -69 c-6 -9 -12 -13 -14 -7 -2 5 -10 10 -18 10 -8 0 -14 4
-14 10 0 5 13 8 29 7 24 -2 26 -4 17 -20z m202 3 c5 -13 3 -13 -11 -1 -15 12
-17 11 -18 -10 0 -22 -1 -23 -8 -4 -5 11 -6 24 -4 28 7 13 36 4 41 -13z"/>
<path d="M1117 1271 c4 -32 3 -42 -5 -37 -7 4 -12 16 -12 26 0 10 -4 22 -10
25 -32 20 18 -150 82 -282 42 -87 69 -122 61 -79 -3 13 0 27 6 30 7 5 11 -1
11 -14 0 -62 87 -129 151 -116 47 9 97 53 115 101 l15 40 -4 -37 c-4 -47 5
-41 47 35 50 89 116 270 116 317 0 25 -19 6 -28 -27 l-10 -38 -2 40 c-2 34 -3
37 -9 15 -4 -14 -6 -53 -3 -87 4 -54 2 -63 -12 -63 -9 0 -16 -3 -16 -7 0 -5
-12 -26 -26 -48 -14 -22 -23 -32 -20 -22 5 16 4 16 -25 1 -17 -8 -40 -16 -52
-18 -12 -1 -35 -8 -52 -15 -30 -13 -104 -9 -128 6 -7 4 -21 9 -31 10 -11 2
-32 10 -48 17 -20 11 -28 11 -28 3 0 -7 -9 2 -20 20 -10 18 -29 42 -40 53 -18
18 -20 28 -14 83 3 36 1 73 -5 87 -8 21 -9 17 -4 -19z"/>
<path d="M1170 1120 c0 -16 5 -30 10 -30 6 0 10 14 10 30 0 17 -4 30 -10 30
-5 0 -10 -13 -10 -30z"/>
<path d="M1581 1120 c0 -33 1 -34 11 -12 8 17 8 26 0 34 -9 9 -12 4 -11 -22z"/>
<path d="M1201 1094 c0 -11 3 -14 6 -6 3 7 2 16 -1 19 -3 4 -6 -2 -5 -13z"/>
<path d="M1224 1089 c-3 -6 -1 -16 5 -22 8 -8 11 -5 11 11 0 24 -5 28 -16 11z"/>
<path d="M1532 1080 c0 -14 2 -19 5 -12 2 6 2 18 0 25 -3 6 -5 1 -5 -13z"/>
<path d="M1470 1064 c0 -14 4 -23 9 -20 5 3 7 15 4 26 -7 28 -13 25 -13 -6z"/>
<path d="M1502 1070 c0 -14 2 -19 5 -12 2 6 2 18 0 25 -3 6 -5 1 -5 -13z"/>
<path d="M1250 1065 c0 -8 4 -15 10 -15 5 0 7 7 4 15 -4 8 -8 15 -10 15 -2 0
-4 -7 -4 -15z"/>
<path d="M1280 1059 c0 -11 5 -17 10 -14 6 3 10 13 10 21 0 8 -4 14 -10 14 -5
0 -10 -9 -10 -21z"/>
<path d="M1310 1056 c0 -14 5 -28 10 -31 6 -4 10 7 10 24 0 17 -4 31 -10 31
-5 0 -10 -11 -10 -24z"/>
<path d="M1434 1066 c-4 -10 -2 -22 4 -28 8 -8 13 -7 18 6 4 10 2 22 -4 28 -8
8 -13 7 -18 -6z"/>
<path d="M1357 1064 c-11 -11 -8 -54 3 -54 6 0 13 6 16 14 7 17 -9 50 -19 40z"/>
<path d="M1390 1040 c0 -21 4 -30 13 -27 6 2 12 14 12 27 0 13 -6 25 -12 28
-9 2 -13 -7 -13 -28z"/>
</g>
</svg>
